# xmcd CD database file
#
# Track frame offsets:
#	150
#	19894
#	38605
#	54981
#	73678
#	95001
#	108024
#	126397
#	146225
#	160673
#	181021
#	194459
#	210725
#	231112
#	251969
#	272826
#	290365
#
# Disc length: 4111 seconds
#
# Revision: 0
# Processed by: cddbd v1.5.2PL0 Copyright (c) Steve Scherf et al.
# Submitted via: CDex 1.51
#
DISCID=fa100d11
DTITLE=Various Artist - New Age Volume 2
DYEAR=1900
DGENRE=New Age
TTITLE0=Enya - Orinoco Flow
TTITLE1=Lorena Mckennitt - Bonny Portmore
TTITLE2=Sarah Brightman - Dust in the WInd
TTITLE3=Era - Ameno
TTITLE4=Celine Dion -The power of love
TTITLE5=Enya - The Celts
TTITLE6=Loreena Mckennitt -Tango to evora
TTITLE7=Sarah Brightman - Il Mio Cuore va
TTITLE8=Era - Era
TTITLE9=Celine DIon - Because You Loved Me
TTITLE10=Enya - SHEPHERD MOONS
TTITLE11=Lorena Mckennitt - Between the Shadows
TTITLE12=Sarah Brightman and Jose Carreras - Amigos Para Siempre
TTITLE13=Era - Omen Sore
TTITLE14=Celine Dion - To love you more
TTITLE15=Enya - Caribbean Blue
TTITLE16=Celine Dion - Beauty and the Beast
EXTD=
EXTT0=
EXTT1=
EXTT2=
EXTT3=
EXTT4=
EXTT5=
EXTT6=
EXTT7=
EXTT8=
EXTT9=
EXTT10=
EXTT11=
EXTT12=
EXTT13=
EXTT14=
EXTT15=
EXTT16=
PLAYORDER=
